<svg version="1.1" id="Layer_1" xmlns="http://www.w3.org/2000/svg" xmlns:xlink="http://www.w3.org/1999/xlink" x="0px" y="0px"
	 width="100%" viewBox="0 0 448 448" enable-background="new 0 0 448 448" xml:space="preserve">
<defs>
	<clipPath id="favicon-circle">
		<circle cx="224" cy="224" r="224"/>
	</clipPath>
</defs>
<g clip-path="url(#favicon-circle)">
<path fill="#000000" opacity="1.000000" stroke="none" 
	d="
M267.000000,449.000000 
	C178.024673,449.000000 89.549355,449.000000 1.037015,449.000000 
	C1.037015,299.733002 1.037015,150.465973 1.037015,1.099473 
	C150.225327,1.099473 299.450745,1.099473 448.838074,1.099473 
	C448.838074,150.333191 448.838074,299.666595 448.838074,449.000000 
	C388.465942,449.000000 327.982971,449.000000 267.000000,449.000000 
M340.026154,398.030090 
	C340.026154,398.030090 340.056671,398.107056 340.779022,398.016357 
	C343.897736,395.689850 347.016418,393.363312 350.596375,390.930817 
	C350.895721,390.749847 351.042511,390.484497 351.712585,390.017426 
	C352.853546,389.023682 353.994507,388.029907 355.726654,386.824890 
	C356.829559,385.593628 357.932495,384.362396 359.755798,383.003754 
	C365.441345,377.897217 371.180542,372.848328 376.773834,367.642700 
	C378.131683,366.379028 379.009186,364.599243 380.030457,363.026306 
	C380.030457,363.026306 380.060181,363.103699 380.687286,362.843414 
	C381.836334,361.240906 382.985352,359.638428 384.674042,357.871063 
	C385.128052,357.293152 385.582062,356.715240 386.665497,355.863525 
	C394.199097,347.513397 400.836517,338.568939 405.031311,328.026245 
	C405.031311,328.026245 405.059753,328.103302 405.716675,327.816956 
	C409.090698,320.541199 412.464722,313.265442 415.998016,305.575256 
	C415.998016,305.575256 416.035675,305.132843 416.547943,304.945679 
	C416.644897,304.633453 416.741852,304.321228 416.996033,303.395935 
	C417.009247,302.974213 417.022491,302.552460 417.712463,301.820312 
	C420.683594,293.133728 424.298157,284.603577 426.457550,275.719696 
	C428.969788,265.384125 431.219757,254.789322 431.747406,244.215408 
	C432.438446,230.367676 432.242340,216.330948 430.738556,202.559967 
	C429.294830,189.339081 425.825165,176.324921 422.950928,163.284897 
	C422.229767,160.013077 420.378082,156.990448 418.997345,153.411423 
	C418.997345,153.411423 418.842957,152.994568 418.932587,152.452652 
	C418.634277,152.260223 418.335938,152.067795 417.997467,151.097549 
	C413.275665,141.063065 408.553864,131.028580 403.916687,120.455757 
	C403.621307,120.261955 403.325897,120.068161 402.995300,119.420578 
	C402.995300,119.420578 402.833740,118.995064 402.918488,118.455574 
	C402.622833,118.260567 402.327179,118.065559 402.002075,117.424515 
	C402.002075,117.424515 401.864899,116.999077 401.959442,116.441856 
	C401.652893,116.243019 401.346313,116.044189 401.003906,115.411934 
	C401.003906,115.411934 400.865387,114.999664 400.959686,114.442284 
	C400.652679,114.244499 400.345703,114.046707 399.919495,113.394714 
	C399.735931,113.100754 399.470917,112.957916 399.012909,112.301468 
	C398.352753,111.494278 397.692596,110.687088 397.002625,109.429802 
	C397.002625,109.429802 396.865356,109.000099 396.959869,108.442566 
	C396.653351,108.243256 396.346802,108.043938 395.922852,107.390137 
	C395.739258,107.095894 395.474121,106.953865 395.011658,106.298004 
	C394.351196,105.489059 393.690765,104.680115 392.855988,103.331825 
	C392.525879,102.887817 392.195740,102.443802 391.959351,101.441422 
	C391.656769,101.231003 391.354187,101.020592 390.953491,100.364014 
	C390.778137,100.074738 390.521362,99.934753 389.973907,99.421318 
	C389.662292,99.230202 389.350708,99.039085 388.784607,98.233513 
	C387.095764,96.249588 385.342224,94.316772 383.728638,92.273399 
	C373.865784,79.783607 362.265686,69.035690 349.325806,59.936436 
	C339.915314,53.319016 329.460693,48.206902 319.813965,41.899963 
	C306.942474,33.484734 292.244934,29.628561 277.915894,25.292606 
	C266.405518,21.809555 254.153076,19.931684 242.120804,19.240356 
	C227.941238,18.425652 213.462692,18.370167 199.446518,20.345898 
	C183.949081,22.530426 168.498413,26.403248 153.645218,31.383484 
	C141.167023,35.567379 128.729568,41.121677 117.802750,48.372829 
	C103.592026,57.803207 88.845840,66.954201 77.801544,80.580025 
	C72.190529,87.502579 65.338844,93.464684 60.082870,100.621025 
	C46.538582,119.062408 35.716839,139.008789 28.535059,160.876480 
	C21.819094,181.325821 18.740040,202.187607 18.858150,223.725601 
	C18.939568,238.572952 19.194563,253.393112 22.119873,267.915619 
	C26.148594,287.915985 33.278046,306.949493 43.013210,324.895721 
	C51.752209,341.005646 62.306046,355.916901 75.416916,368.769958 
	C83.242218,376.441406 91.450119,383.838135 100.181877,390.437714 
	C109.354324,397.370361 119.020058,403.813690 129.075394,409.377045 
	C144.711716,418.028198 161.609238,423.707275 179.657654,427.983307 
	C180.100174,427.935150 180.542709,427.886993 181.415375,427.997192 
	C181.415375,427.997192 181.872070,428.036438 182.273544,428.763977 
	C183.732437,428.925507 185.195511,429.056152 186.649521,429.253662 
	C195.774185,430.493103 204.870438,432.485901 214.026688,432.812775 
	C225.861572,433.235260 237.757462,432.567444 249.599091,431.883850 
	C254.461319,431.603149 259.250488,430.056641 264.715210,429.016724 
	C265.139252,428.957520 265.563324,428.898346 266.794556,428.983032 
	C270.225433,428.018280 273.656281,427.053497 277.724365,426.016174 
	C278.145294,425.957214 278.566254,425.898254 279.774200,425.990845 
	C280.659332,425.664825 281.525177,425.266907 282.432526,425.023590 
	C294.556122,421.772278 306.341675,417.687958 317.027405,411.031738 
	C317.027405,411.031738 317.056976,411.109100 317.814148,411.000610 
	C321.910583,408.686920 326.007019,406.373199 330.026337,404.030945 
	C330.026337,404.030945 330.055756,404.107697 330.803162,404.006989 
	C333.903259,402.024536 337.003387,400.042084 340.026154,398.030090 
z"/>
<path fill="#DDE0F0" opacity="1.000000" stroke="none" 
	d="
M181.872070,428.036438 
	C181.872070,428.036438 181.415375,427.997192 181.039551,427.735535 
	C180.110748,427.591095 179.557755,427.708313 179.004776,427.825562 
	C161.609238,423.707275 144.711716,418.028198 129.075394,409.377045 
	C119.020058,403.813690 109.354324,397.370361 100.181877,390.437714 
	C91.450119,383.838135 83.242218,376.441406 75.416916,368.769958 
	C62.306046,355.916901 51.752209,341.005646 43.013210,324.895721 
	C33.278046,306.949493 26.148594,287.915985 22.119873,267.915619 
	C19.194563,253.393112 18.939568,238.572952 18.858150,223.725601 
	C18.740040,202.187607 21.819094,181.325821 28.535059,160.876480 
	C35.716839,139.008789 46.538582,119.062408 60.082870,100.621025 
	C65.338844,93.464684 72.190529,87.502579 77.801544,80.580025 
	C88.845840,66.954201 103.592026,57.803207 117.802750,48.372829 
	C128.729568,41.121677 141.167023,35.567379 153.645218,31.383484 
	C168.498413,26.403248 183.949081,22.530426 199.446518,20.345898 
	C213.462692,18.370167 227.941238,18.425652 242.120804,19.240356 
	C254.153076,19.931684 266.405518,21.809555 277.915894,25.292606 
	C292.244934,29.628561 306.942474,33.484734 319.813965,41.899963 
	C329.460693,48.206902 339.915314,53.319016 349.325806,59.936436 
	C362.265686,69.035690 373.865784,79.783607 383.728638,92.273399 
	C385.342224,94.316772 387.095764,96.249588 389.039581,98.782448 
	C389.590759,99.535606 389.886993,99.739838 390.183197,99.944061 
	C390.521362,99.934753 390.778137,100.074738 391.083862,100.820450 
	C391.349030,101.592049 391.566162,101.833023 391.865631,101.999794 
	C392.195740,102.443802 392.525879,102.887817 392.939148,103.968010 
	C393.724060,105.390816 394.425751,106.177429 395.127472,106.964050 
	C395.474121,106.953865 395.739258,107.095894 396.066284,107.845413 
	C396.350067,108.607124 396.568604,108.840263 396.865356,109.000099 
	C396.865356,109.000099 397.002625,109.429802 397.018890,110.020088 
	C397.731598,111.395653 398.428040,112.180931 399.124451,112.966202 
	C399.470917,112.957916 399.735931,113.100754 400.064209,113.849167 
	C400.350098,114.608864 400.568909,114.840881 400.865387,114.999664 
	C400.865387,114.999664 401.003906,115.411934 401.106628,115.856400 
	C401.349915,116.606796 401.568420,116.839531 401.864899,116.999077 
	C401.864899,116.999077 402.002075,117.424515 402.105408,117.865479 
	C402.349335,118.597473 402.557648,118.827011 402.833740,118.995064 
	C402.833740,118.995064 402.995300,119.420578 403.102203,119.864227 
	C403.349731,120.597481 403.557373,120.826218 403.832062,120.994095 
	C408.553864,131.028580 413.275665,141.063065 418.104462,151.704941 
	C418.353455,152.603134 418.563965,152.830536 418.842957,152.994568 
	C418.842957,152.994568 418.997345,153.411423 419.008057,154.040070 
	C419.921906,157.663498 420.867767,160.646164 421.721527,163.654968 
	C429.104706,189.674149 433.467590,216.057602 429.920502,243.149658 
	C428.315430,255.408829 426.046112,267.605133 423.499054,279.708099 
	C421.901428,287.299500 419.226990,294.664276 417.035706,302.130737 
	C417.022491,302.552460 417.009247,302.974213 416.733093,303.849518 
	C416.261841,304.546417 416.117004,304.822998 416.035675,305.132843 
	C416.035675,305.132843 415.998016,305.575256 415.586548,305.863831 
	C411.803314,313.469360 408.431549,320.786316 405.059753,328.103302 
	C405.059753,328.103302 405.031311,328.026245 404.723175,328.082397 
	C399.673187,334.975067 394.872314,341.771851 390.221985,348.670135 
	C388.632355,351.028198 387.420532,353.640930 386.036072,356.137329 
	C385.582062,356.715240 385.128052,357.293152 384.039795,357.985321 
	C382.290405,359.767609 381.175293,361.435638 380.060181,363.103699 
	C380.060181,363.103699 380.030457,363.026306 379.718414,363.063416 
	C372.616058,369.777435 365.825745,376.454315 359.035400,383.131165 
	C357.932495,384.362396 356.829559,385.593628 355.053650,386.926086 
	C353.265991,388.063110 352.151337,389.098907 351.036682,390.134735 
	C351.042511,390.484497 350.895721,390.749847 349.988464,390.979065 
	C346.272583,393.387207 343.164642,395.747131 340.056671,398.107056 
	C340.056671,398.107056 340.026154,398.030090 339.684937,398.034058 
	C336.247742,400.061279 333.151764,402.084473 330.055756,404.107697 
	C330.055756,404.107697 330.026337,404.030945 329.683350,404.034973 
	C325.245880,406.395691 321.151428,408.752380 317.056976,411.109070 
	C317.056976,411.109100 317.027405,411.031738 316.666870,411.029236 
	C315.326569,411.148529 314.273926,411.079346 313.378174,411.421173 
	C302.712402,415.491028 292.059998,419.596710 281.438721,423.780884 
	C280.497314,424.151703 279.798615,425.138550 278.987183,425.839294 
	C278.566254,425.898254 278.145294,425.957214 277.157715,425.808258 
	C273.056488,426.679932 269.521942,427.759521 265.987366,428.839142 
	C265.563324,428.898346 265.139252,428.957520 264.133118,428.782959 
	C257.994659,429.108337 252.444443,430.063049 246.880707,430.149811 
	C232.293396,430.377228 217.695038,430.455414 203.111557,430.127228 
	C196.019638,429.967621 188.951157,428.766205 181.872070,428.036438 
M219.821411,238.292526 
	C221.108154,232.959839 222.277832,227.595688 223.700333,222.299469 
	C234.338715,182.690445 248.154251,144.171158 263.767609,106.282265 
	C266.794434,98.937103 270.795563,92.302109 278.906311,89.240921 
	C280.188385,88.757042 281.723267,86.562271 281.647949,85.243866 
	C281.103882,75.720627 266.000946,67.694191 257.625397,72.227242 
	C251.599152,75.488785 247.773560,80.711548 245.155533,86.745979 
	C239.855698,98.961891 234.685516,111.242104 229.812424,123.633659 
	C213.087463,166.162918 200.254547,209.866272 191.065979,254.622406 
	C190.107025,259.293243 188.026245,261.639832 183.554123,263.196320 
	C173.259918,266.779175 172.540970,270.979736 180.309540,278.807098 
	C180.779037,279.280182 181.180359,279.880341 181.740631,280.194244 
	C185.319565,282.199280 185.209015,285.174866 184.614227,288.754486 
	C182.079010,304.012054 179.346664,319.259491 177.566437,334.612701 
	C176.129105,347.008759 178.139618,358.829651 187.450577,368.406738 
	C195.477982,376.663574 200.584412,377.407379 209.059616,369.886475 
	C225.098907,355.653290 238.552399,339.464172 244.186737,318.178864 
	C247.583542,305.346466 245.881638,293.298431 236.311096,283.354126 
	C233.144028,280.063416 229.285065,277.438568 225.475952,274.288910 
	C227.219559,273.823059 228.757050,273.318024 230.332764,273.006012 
	C245.241486,270.054077 260.245087,268.388428 275.479553,269.520813 
	C280.519196,269.895416 282.784393,267.598541 282.047760,263.278107 
	C281.065735,257.518677 273.689056,250.026688 267.974640,249.968170 
	C257.018097,249.855972 246.045593,250.108948 235.099579,250.628525 
	C228.917877,250.921951 222.775665,252.047745 216.054932,252.866974 
	C217.391266,247.753830 218.522659,243.424911 219.821411,238.292526 
z"/>
<path fill="#EDEBE9" opacity="1.000000" stroke="none" 
	d="
M417.374084,301.975525 
	C419.226990,294.664276 421.901428,287.299500 423.499054,279.708099 
	C426.046112,267.605133 428.315430,255.408829 429.920502,243.149658 
	C433.467590,216.057602 429.104706,189.674149 421.721527,163.654968 
	C420.867767,160.646164 419.921906,157.663498 419.032349,154.260986 
	C420.378082,156.990448 422.229767,160.013077 422.950928,163.284897 
	C425.825165,176.324921 429.294830,189.339081 430.738556,202.559967 
	C432.242340,216.330948 432.438446,230.367676 431.747406,244.215408 
	C431.219757,254.789322 428.969788,265.384125 426.457550,275.719696 
	C424.298157,284.603577 420.683594,293.133728 417.374084,301.975525 
z"/>
<path fill="#EDEBE9" opacity="1.000000" stroke="none" 
	d="
M182.072815,428.400208 
	C188.951157,428.766205 196.019638,429.967621 203.111557,430.127228 
	C217.695038,430.455414 232.293396,430.377228 246.880707,430.149811 
	C252.444443,430.063049 257.994659,429.108337 263.811951,428.817566 
	C259.250488,430.056641 254.461319,431.603149 249.599091,431.883850 
	C237.757462,432.567444 225.861572,433.235260 214.026688,432.812775 
	C204.870438,432.485901 195.774185,430.493103 186.649521,429.253662 
	C185.195511,429.056152 183.732437,428.925507 182.072815,428.400208 
z"/>
<path fill="#EDEBE9" opacity="1.000000" stroke="none" 
	d="
M279.380676,425.915070 
	C279.798615,425.138550 280.497314,424.151703 281.438721,423.780884 
	C292.059998,419.596710 302.712402,415.491028 313.378174,411.421173 
	C314.273926,411.079346 315.326569,411.148529 316.705597,411.043854 
	C306.341675,417.687958 294.556122,421.772278 282.432526,425.023590 
	C281.525177,425.266907 280.659332,425.664825 279.380676,425.915070 
z"/>
<path fill="#EDEBE9" opacity="1.000000" stroke="none" 
	d="
M386.350769,356.000427 
	C387.420532,353.640930 388.632355,351.028198 390.221985,348.670135 
	C394.872314,341.771851 399.673187,334.975067 404.761566,328.096985 
	C400.836517,338.568939 394.199097,347.513397 386.350769,356.000427 
z"/>
<path fill="#EDEBE9" opacity="1.000000" stroke="none" 
	d="
M359.395630,383.067444 
	C365.825745,376.454315 372.616058,369.777435 379.756958,363.078674 
	C379.009186,364.599243 378.131683,366.379028 376.773834,367.642700 
	C371.180542,372.848328 365.441345,377.897217 359.395630,383.067444 
z"/>
<path fill="#EDEBE9" opacity="1.000000" stroke="none" 
	d="
M405.388214,327.960144 
	C408.431549,320.786316 411.803314,313.469360 415.506897,306.071045 
	C412.464722,313.265442 409.090698,320.541199 405.388214,327.960144 
z"/>
<path fill="#EDEBE9" opacity="1.000000" stroke="none" 
	d="
M317.435547,411.054840 
	C321.151428,408.752380 325.245880,406.395691 329.721893,404.049255 
	C326.007019,406.373199 321.910583,408.686920 317.435547,411.054840 
z"/>
<path fill="#EDEBE9" opacity="1.000000" stroke="none" 
	d="
M340.417847,398.061707 
	C343.164642,395.747131 346.272583,393.387207 349.757812,391.032043 
	C347.016418,393.363312 343.897736,395.689850 340.417847,398.061707 
z"/>
<path fill="#EDEBE9" opacity="1.000000" stroke="none" 
	d="
M330.429443,404.057343 
	C333.151764,402.084473 336.247742,400.061279 339.723633,398.048828 
	C337.003387,400.042084 333.903259,402.024536 330.429443,404.057343 
z"/>
<path fill="#EDEBE9" opacity="1.000000" stroke="none" 
	d="
M266.390961,428.911072 
	C269.521942,427.759521 273.056488,426.679932 276.839111,425.844543 
	C273.656281,427.053497 270.225433,428.018280 266.390961,428.911072 
z"/>
<path fill="#EDEBE9" opacity="1.000000" stroke="none" 
	d="
M380.373718,362.973572 
	C381.175293,361.435638 382.290405,359.767609 383.769958,358.067749 
	C382.985352,359.638428 381.836334,361.240906 380.373718,362.973572 
z"/>
<path fill="#EDEBE9" opacity="1.000000" stroke="none" 
	d="
M351.374634,390.076080 
	C352.151337,389.098907 353.265991,388.063110 354.758057,387.031738 
	C353.994507,388.029907 352.853546,389.023682 351.374634,390.076080 
z"/>
<path fill="#EDEDEC" opacity="1.000000" stroke="none" 
	d="
M395.069580,106.631027 
	C394.425751,106.177429 393.724060,105.390816 393.026337,104.237679 
	C393.690765,104.680115 394.351196,105.489059 395.069580,106.631027 
z"/>
<path fill="#EDEDEC" opacity="1.000000" stroke="none" 
	d="
M399.068665,112.633835 
	C398.428040,112.180931 397.731598,111.395653 397.033813,110.245132 
	C397.692596,110.687088 398.352753,111.494278 399.068665,112.633835 
z"/>
<path fill="#EDEBE9" opacity="1.000000" stroke="none" 
	d="
M179.331207,427.904419 
	C179.557755,427.708313 180.110748,427.591095 180.824493,427.656311 
	C180.542709,427.886993 180.100174,427.935150 179.331207,427.904419 
z"/>
<path fill="#EDEBE9" opacity="1.000000" stroke="none" 
	d="
M416.291809,305.039246 
	C416.117004,304.822998 416.261841,304.546417 416.654480,304.156067 
	C416.741852,304.321228 416.644897,304.633453 416.291809,305.039246 
z"/>
<path fill="#EDEDEC" opacity="1.000000" stroke="none" 
	d="
M390.078552,99.682693 
	C389.886993,99.739838 389.590759,99.535606 389.166809,99.089676 
	C389.350708,99.039085 389.662292,99.230202 390.078552,99.682693 
z"/>
<path fill="#EDEBE9" opacity="1.000000" stroke="none" 
	d="
M418.887756,152.723602 
	C418.563965,152.830536 418.353455,152.603134 418.124542,152.093842 
	C418.335938,152.067795 418.634277,152.260223 418.887756,152.723602 
z"/>
<path fill="#EDEDEC" opacity="1.000000" stroke="none" 
	d="
M403.874390,120.724930 
	C403.557373,120.826218 403.349731,120.597481 403.119812,120.091110 
	C403.325897,120.068161 403.621307,120.261955 403.874390,120.724930 
z"/>
<path fill="#EDEDEC" opacity="1.000000" stroke="none" 
	d="
M402.876099,118.725319 
	C402.557648,118.827011 402.349335,118.597473 402.120148,118.088493 
	C402.327179,118.065559 402.622833,118.260567 402.876099,118.725319 
z"/>
<path fill="#EDEDEC" opacity="1.000000" stroke="none" 
	d="
M401.912170,116.720467 
	C401.568420,116.839531 401.349915,116.606796 401.124573,116.073105 
	C401.346313,116.044189 401.652893,116.243019 401.912170,116.720467 
z"/>
<path fill="#EDEDEC" opacity="1.000000" stroke="none" 
	d="
M400.912537,114.720978 
	C400.568909,114.840881 400.350098,114.608864 400.123840,114.076263 
	C400.345703,114.046707 400.652679,114.244499 400.912537,114.720978 
z"/>
<path fill="#EDEDEC" opacity="1.000000" stroke="none" 
	d="
M396.912598,108.721329 
	C396.568604,108.840263 396.350067,108.607124 396.125000,108.072655 
	C396.346802,108.043938 396.653351,108.243256 396.912598,108.721329 
z"/>
<path fill="#EDEDEC" opacity="1.000000" stroke="none" 
	d="
M391.912476,101.720612 
	C391.566162,101.833023 391.349030,101.592049 391.132935,101.043533 
	C391.354187,101.020592 391.656769,101.231003 391.912476,101.720612 
z"/>
<path fill="#5473FF" opacity="1.000000" stroke="none" 
	d="
M219.737732,238.694260 
	C218.522659,243.424911 217.391266,247.753830 216.054932,252.866974 
	C222.775665,252.047745 228.917877,250.921951 235.099579,250.628525 
	C246.045593,250.108948 257.018097,249.855972 267.974640,249.968170 
	C273.689056,250.026688 281.065735,257.518677 282.047760,263.278107 
	C282.784393,267.598541 280.519196,269.895416 275.479553,269.520813 
	C260.245087,268.388428 245.241486,270.054077 230.332764,273.006012 
	C228.757050,273.318024 227.219559,273.823059 225.475952,274.288910 
	C229.285065,277.438568 233.144028,280.063416 236.311096,283.354126 
	C245.881638,293.298431 247.583542,305.346466 244.186737,318.178864 
	C238.552399,339.464172 225.098907,355.653290 209.059616,369.886475 
	C200.584412,377.407379 195.477982,376.663574 187.450577,368.406738 
	C178.139618,358.829651 176.129105,347.008759 177.566437,334.612701 
	C179.346664,319.259491 182.079010,304.012054 184.614227,288.754486 
	C185.209015,285.174866 185.319565,282.199280 181.740631,280.194244 
	C181.180359,279.880341 180.779037,279.280182 180.309540,278.807098 
	C172.540970,270.979736 173.259918,266.779175 183.554123,263.196320 
	C188.026245,261.639832 190.107025,259.293243 191.065979,254.622406 
	C200.254547,209.866272 213.087463,166.162918 229.812424,123.633659 
	C234.685516,111.242104 239.855698,98.961891 245.155533,86.745979 
	C247.773560,80.711548 251.599152,75.488785 257.625397,72.227242 
	C266.000946,67.694191 281.103882,75.720627 281.647949,85.243866 
	C281.723267,86.562271 280.188385,88.757042 278.906311,89.240921 
	C270.795563,92.302109 266.794434,98.937103 263.767609,106.282265 
	C248.154251,144.171158 234.338715,182.690445 223.700333,222.299469 
	C222.277832,227.595688 221.108154,232.959839 219.737732,238.694260 
M201.774872,333.096710 
	C201.551712,335.414215 201.328568,337.731720 200.981155,341.339630 
	C212.843826,327.853760 220.706635,314.035583 223.365814,297.603790 
	C224.163071,292.677338 222.487991,290.547699 217.553207,289.795074 
	C216.076202,289.569855 214.592178,289.388306 213.108810,289.207794 
	C209.983948,288.827576 208.258957,289.769775 207.771759,293.324005 
	C205.989761,306.324127 203.902847,319.282410 201.774872,333.096710 
z"/>
<path fill="#D7DBF1" opacity="1.000000" stroke="none" 
	d="
M201.852829,332.676575 
	C203.902847,319.282410 205.989761,306.324127 207.771759,293.324005 
	C208.258957,289.769775 209.983948,288.827576 213.108810,289.207794 
	C214.592178,289.388306 216.076202,289.569855 217.553207,289.795074 
	C222.487991,290.547699 224.163071,292.677338 223.365814,297.603790 
	C220.706635,314.035583 212.843826,327.853760 200.981155,341.339630 
	C201.328568,337.731720 201.551712,335.414215 201.852829,332.676575 
z"/>
</g>
</svg>
